<svg width="154" height="160" viewBox="0 0 154 160" fill="none" xmlns="http://www.w3.org/2000/svg">
<g id="illustration 500">
<path id="Path" d="M153.417 142.428H148.137V141.969H152.951V98.8945H134.386V35.2191H117.343V34.7605H134.845V98.4352H153.417V142.428Z" fill="#00AB55"/>
<path id="Path_2" d="M47.6961 68.8054H47.231V53.5781H59.1137V39.8335H59.5723V54.0439H47.6961V68.8054Z" fill="#00AB55"/>
<path id="Path_3" opacity="0.12" d="M117.329 31.1163C117.329 33.4296 116.41 35.6475 114.774 37.2826C113.138 38.9177 110.919 39.8357 108.606 39.8335H48.8404C45.667 39.9216 42.6972 38.2786 41.0845 35.5442C39.4725 32.8099 39.4725 29.4162 41.0845 26.6818C42.6972 23.9475 45.667 22.3044 48.8404 22.3926H50.8352C49.3799 17.2122 50.4351 11.6498 53.6851 7.36174C56.9351 3.07369 62.0051 0.554794 67.3857 0.555426H72.4723C78.8907 0.550099 84.7746 4.12597 87.7263 9.82481C89.1787 9.07962 90.7885 8.69207 92.4208 8.69438H93.7511C96.4934 8.69438 99.123 9.78378 101.062 11.7229C103.001 13.662 104.09 16.292 104.09 19.0343V19.5463C104.091 20.5089 103.957 21.4669 103.692 22.3926H108.639C113.442 22.4142 117.326 26.3128 117.329 31.1163Z" fill="#00AB55"/>
<path id="Path_4" d="M139.572 126.516C138.722 126.516 138.028 125.837 138.01 124.987V114.859C138.01 111.187 135.033 108.21 131.36 108.21C127.688 108.21 124.711 111.187 124.711 114.859V124.987C124.711 125.85 124.011 126.549 123.148 126.549C122.285 126.549 121.585 125.85 121.585 124.987V114.859C121.585 109.461 125.962 105.085 131.36 105.085C136.759 105.085 141.135 109.461 141.135 114.859V124.987C141.117 125.837 140.422 126.516 139.572 126.516Z" fill="white"/>
<path id="Path_5" d="M141.135 114.859V124.987C141.132 125.535 140.838 126.041 140.363 126.317C140.125 126.461 139.851 126.537 139.573 126.536C138.715 126.536 138.017 125.844 138.01 124.987V114.859C138.01 111.493 135.494 108.658 132.152 108.257C131.889 108.228 131.624 108.212 131.36 108.21C127.688 108.21 124.711 111.187 124.711 114.859V124.987C124.705 125.534 124.412 126.039 123.939 126.317C123.699 126.461 123.423 126.537 123.141 126.536C122.28 126.533 121.583 125.835 121.579 124.973V114.859C121.586 109.461 125.962 105.088 131.36 105.085C131.624 105.085 131.889 105.098 132.152 105.124C137.224 105.537 141.131 109.771 141.135 114.859Z" fill="white"/>
<path id="Path_6" d="M141.134 114.859V124.987C141.355 125.361 141.273 125.839 140.942 126.12C140.609 126.4 140.124 126.4 139.792 126.12C139.46 125.839 139.379 125.361 139.599 124.987V114.859C139.599 111.188 136.622 108.21 132.949 108.21C132.683 108.212 132.416 108.228 132.151 108.257C131.888 108.228 131.624 108.212 131.36 108.21C127.687 108.21 124.71 111.188 124.71 114.859V124.987C124.927 125.361 124.843 125.837 124.512 126.115C124.181 126.393 123.698 126.393 123.366 126.115C123.035 125.837 122.951 125.361 123.168 124.987V114.859C122.876 111.468 124.52 108.201 127.418 106.416C130.316 104.63 133.974 104.63 136.871 106.416C139.769 108.201 141.414 111.468 141.121 114.859H141.134Z" fill="#DFE3E8"/>
<path id="Rectangle" d="M142.861 124.947H118.916C116.002 124.947 113.64 127.309 113.64 130.223V154.168C113.64 157.082 116.002 159.444 118.916 159.444H142.861C145.775 159.444 148.137 157.082 148.137 154.168V130.223C148.137 127.309 145.775 124.947 142.861 124.947Z" fill="#005249"/>
<path id="Rectangle_2" d="M142.867 124.954H124.894C121.984 124.954 119.624 127.313 119.624 130.224V154.175C119.624 157.085 121.984 159.445 124.894 159.445H142.867C145.777 159.445 148.137 157.085 148.137 154.175V130.224C148.137 127.313 145.777 124.954 142.867 124.954Z" fill="#007B55"/>
<path id="Path_7" d="M133.195 143.366C133.558 142.088 132.584 140.674 132.352 139.365C132.31 139.133 132.305 138.889 132.344 138.644C132.51 137.575 133.43 136.786 134.512 136.786C135.594 136.786 136.514 137.575 136.681 138.644C136.717 138.883 136.715 139.12 136.676 139.347C136.454 140.657 135.5 142.097 135.899 143.364L136.187 144.281C136.534 145.379 135.714 146.498 134.562 146.498C133.43 146.498 132.612 145.415 132.921 144.327L133.195 143.366Z" fill="#005249"/>
<path id="Rectangle_3" d="M143 54.7222H127.111C123.92 54.7222 121.333 57.309 121.333 60.4999V76.9319C121.333 80.1229 123.92 82.7097 127.111 82.7097H143C146.191 82.7097 148.778 80.1229 148.778 76.9319V60.4999C148.778 57.309 146.191 54.7222 143 54.7222Z" fill="#00AB55"/>
<path id="Rectangle_4" opacity="0.18" d="M33.2085 43.6504H17.0216C15.825 43.6504 14.855 44.6204 14.855 45.8171V69.4713C14.855 70.6679 15.825 71.6379 17.0216 71.6379H33.2085C34.4051 71.6379 35.3752 70.6679 35.3752 69.4713V45.8171C35.3752 44.6204 34.4051 43.6504 33.2085 43.6504Z" fill="#00AB55"/>
<path id="Rectangle_5" d="M28.208 48.1853H12.0212C10.8245 48.1853 9.85449 49.1554 9.85449 50.352V74.0062C9.85449 75.2028 10.8245 76.1729 12.0212 76.1729H28.208C29.4047 76.1729 30.3747 75.2028 30.3747 74.0062V50.352C30.3747 49.1554 29.4047 48.1853 28.208 48.1853Z" fill="white"/>
<path id="Rectangle_6" opacity="0.48" d="M28.208 48.1853H12.0212C10.8245 48.1853 9.85449 49.1554 9.85449 50.352V74.0062C9.85449 75.2028 10.8245 76.1729 12.0212 76.1729H28.208C29.4047 76.1729 30.3747 75.2028 30.3747 74.0062V50.352C30.3747 49.1554 29.4047 48.1853 28.208 48.1853Z" fill="#00AB55"/>
<path id="Path_8" d="M0 125.833C0.151161 127.261 0.646317 128.63 1.44293 129.824C4.63464 135.462 8.2121 141.015 13.1526 145.197C20.4205 151.341 29.9289 153.994 39.1184 156.501C38.3009 156.102 37.31 151.847 36.9445 150.936C36.2332 149.114 35.568 147.272 34.8898 145.436C33.8058 142.544 31.5647 140.217 29.3309 138.082C24.3309 133.251 18.2549 129.678 11.6033 127.656C7.84073 126.504 3.93431 125.891 0 125.833Z" fill="#005249"/>
<path id="Path_9" d="M35.9538 128.993C35.202 123.746 34.4307 118.433 32.3232 113.572C30.2151 108.712 26.558 104.263 21.5909 102.448C21.4446 109.957 21.3005 117.464 21.1587 124.97C21.0722 129.305 20.9991 133.727 22.2425 137.882C24.4302 145.197 32.004 153.715 39.2985 156.122C40.3825 152.624 38.5668 147.325 38.0483 143.688L35.9538 128.993Z" fill="#00AB55"/>
<path id="Rectangle_7" d="M113.504 68.4443H43.3444C39.9826 68.4443 37.2573 71.1696 37.2573 74.5314V88.3572C37.2573 91.7191 39.9826 94.4443 43.3444 94.4443H113.504C116.865 94.4443 119.591 91.7191 119.591 88.3572V74.5314C119.591 71.1696 116.865 68.4443 113.504 68.4443Z" fill="#007B55"/>
<path id="Rectangle_8" d="M113.504 68.4443H47.6779C44.3161 68.4443 41.5908 71.1696 41.5908 74.5314V88.3572C41.5908 91.7191 44.3161 94.4443 47.6779 94.4443H113.504C116.866 94.4443 119.591 91.7191 119.591 88.3572V74.5314C119.591 71.1696 116.866 68.4443 113.504 68.4443Z" fill="#00AB55"/>
<path id="Shape" d="M58.9238 81.3318C58.9238 82.9279 57.6303 84.2207 56.0349 84.2207C54.4395 84.2207 53.146 82.9279 53.146 81.3318C53.146 79.7364 54.4395 78.4429 56.0349 78.4429C57.6303 78.4429 58.9238 79.7364 58.9238 81.3318ZM67.5904 81.3318C67.5904 82.9279 66.2969 84.2207 64.7016 84.2207C63.1062 84.2207 61.8127 82.9279 61.8127 81.3318C61.8127 79.7364 63.1062 78.4429 64.7016 78.4429C66.2969 78.4429 67.5904 79.7364 67.5904 81.3318ZM73.3682 84.2207C74.9636 84.2207 76.2571 82.9279 76.2571 81.3318C76.2571 79.7364 74.9636 78.4429 73.3682 78.4429C71.7728 78.4429 70.4793 79.7364 70.4793 81.3318C70.4793 82.9279 71.7728 84.2207 73.3682 84.2207Z" fill="#C8FACD"/>
<path id="Rectangle_9" d="M113.504 100.222H43.3444C39.9826 100.222 37.2573 102.947 37.2573 106.309V120.135C37.2573 123.497 39.9826 126.222 43.3444 126.222H113.504C116.865 126.222 119.591 123.497 119.591 120.135V106.309C119.591 102.947 116.865 100.222 113.504 100.222Z" fill="#007B55"/>
<path id="Path_10" d="M119.889 107.143V119.287C119.895 121.128 119.134 122.895 117.778 124.197C116.421 125.499 114.578 126.227 112.659 126.222H49.1044C47.1884 126.222 45.3511 125.491 43.9969 124.191C42.6434 122.889 41.8851 121.126 41.8887 119.287V107.143C41.8887 103.321 45.1192 100.222 49.1044 100.222H112.659C114.575 100.219 116.414 100.947 117.77 102.244C119.127 103.543 119.889 105.306 119.889 107.143Z" fill="#00AB55"/>
<path id="Shape_2" d="M59.2221 113.222C59.2221 114.818 57.9286 116.111 56.3332 116.111C54.7378 116.111 53.4443 114.818 53.4443 113.222C53.4443 111.627 54.7378 110.333 56.3332 110.333C57.9286 110.333 59.2221 111.627 59.2221 113.222ZM67.8888 113.222C67.8888 114.818 66.5953 116.111 64.9999 116.111C63.4045 116.111 62.111 114.818 62.111 113.222C62.111 111.627 63.4045 110.333 64.9999 110.333C66.5953 110.333 67.8888 111.627 67.8888 113.222ZM73.6666 116.111C75.2619 116.111 76.5554 114.818 76.5554 113.222C76.5554 111.627 75.2619 110.333 73.6666 110.333C72.0712 110.333 70.7777 111.627 70.7777 113.222C70.7777 114.818 72.0712 116.111 73.6666 116.111Z" fill="#C8FACD"/>
<path id="Rectangle_10" d="M111.222 111.778H89.5557C89.1568 111.778 88.8335 112.101 88.8335 112.5V113.944C88.8335 114.343 89.1568 114.666 89.5557 114.666H111.222C111.621 114.666 111.945 114.343 111.945 113.944V112.5C111.945 112.101 111.621 111.778 111.222 111.778Z" fill="#C8FACD"/>
<path id="Rectangle_11" d="M113.504 132.151H43.3444C39.9826 132.151 37.2573 134.876 37.2573 138.238V152.064C37.2573 155.426 39.9826 158.151 43.3444 158.151H113.504C116.865 158.151 119.591 155.426 119.591 152.064V138.238C119.591 134.876 116.865 132.151 113.504 132.151Z" fill="#007B55"/>
<path id="Rectangle_12" d="M113.802 132H47.9758C44.614 132 41.8887 134.725 41.8887 138.087V151.913C41.8887 155.275 44.614 158 47.9758 158H113.802C117.163 158 119.889 155.275 119.889 151.913V138.087C119.889 134.725 117.163 132 113.802 132Z" fill="#00AB55"/>
<path id="Shape_3" d="M59.2221 145C59.2221 146.595 57.9286 147.889 56.3332 147.889C54.7378 147.889 53.4443 146.595 53.4443 145C53.4443 143.405 54.7378 142.111 56.3332 142.111C57.9286 142.111 59.2221 143.405 59.2221 145ZM67.8888 145C67.8888 146.595 66.5953 147.889 64.9999 147.889C63.4045 147.889 62.111 146.595 62.111 145C62.111 143.405 63.4045 142.111 64.9999 142.111C66.5953 142.111 67.8888 143.405 67.8888 145ZM73.6666 147.889C75.2619 147.889 76.5554 146.595 76.5554 145C76.5554 143.405 75.2619 142.111 73.6666 142.111C72.0712 142.111 70.7777 143.405 70.7777 145C70.7777 146.595 72.0712 147.889 73.6666 147.889Z" fill="#C8FACD"/>
<path id="Rectangle_13" d="M110.5 143.555H88.8336C88.4347 143.555 88.1113 143.879 88.1113 144.278V145.722C88.1113 146.121 88.4347 146.444 88.8336 146.444H110.5C110.899 146.444 111.222 146.121 111.222 145.722V144.278C111.222 143.879 110.899 143.555 110.5 143.555Z" fill="#C8FACD"/>
<path id="Path_11" d="M128.556 64.6982L135.19 61.2222L141.556 64.6794C141.556 64.6794 140.373 73.2197 135.347 75.6666C135.334 75.6666 129.1 73.2761 128.556 64.6982Z" fill="#005249"/>
</g>
</svg>
