<svg id="Layer_1" data-name="Layer 1" xmlns="http://www.w3.org/2000/svg" xmlns:xlink="http://www.w3.org/1999/xlink" viewBox="0 0 1076.43 1076.43"><defs><style>.cls-1{fill:url(#linear-gradient);}.cls-2{fill:url(#linear-gradient-2);}.cls-3{fill:url(#linear-gradient-3);}</style><linearGradient id="linear-gradient" x1="466.33" y1="554.68" x2="663.1" y2="357.92" gradientUnits="userSpaceOnUse"><stop offset="0" stop-color="#6189ce"/><stop offset="0.15" stop-color="#6e91c0"/><stop offset="0.42" stop-color="#819dad"/><stop offset="0.7" stop-color="#8ba4a2"/><stop offset="1" stop-color="#8fa69e"/></linearGradient><linearGradient id="linear-gradient-2" x1="168.91" y1="944.71" x2="948.98" y2="164.64" xlink:href="#linear-gradient"/><linearGradient id="linear-gradient-3" x1="558.94" y1="109.51" x2="558.94" y2="999.83" gradientUnits="userSpaceOnUse"><stop offset="0" stop-color="#58db7a"/><stop offset="0.22" stop-color="#54d878"/><stop offset="0.43" stop-color="#48ce73"/><stop offset="0.64" stop-color="#35be6b"/><stop offset="0.85" stop-color="#19a860"/><stop offset="1" stop-color="#009355"/></linearGradient></defs><path class="cls-1" d="M712.08,455c0,76.68-54.12,115.56-133.85,115.56H482.18V342.61H585.39C678.39,342.61,712.08,400.85,712.08,455Z"/><path class="cls-2" d="M815.75,109.51H302.14c-104.13,0-188.43,84.31-188.43,188.28V811.55c0,104,84.3,188.28,188.43,188.28H815.75c104.12,0,188.43-84.31,188.43-188.28V297.79C1004.18,193.82,919.87,109.51,815.75,109.51ZM577.16,699.2h-95V928.94h-148v-715H618c184.92,0,248.19,118.46,248.19,237.07C866.21,620.53,750.8,699.2,577.16,699.2Z"/><path class="cls-3" d="M712.08,455c0,76.68-54.12,115.56-133.85,115.56H482.18V342.61H585.39C678.39,342.61,712.08,400.85,712.08,455Z"/><path class="cls-3" d="M815.75,109.51H302.14c-104.13,0-188.43,84.31-188.43,188.28V811.55c0,104,84.3,188.28,188.43,188.28H815.75c104.12,0,188.43-84.31,188.43-188.28V297.79C1004.18,193.82,919.87,109.51,815.75,109.51ZM577.16,699.2h-95V928.94h-148v-715H618c184.92,0,248.19,118.46,248.19,237.07C866.21,620.53,750.8,699.2,577.16,699.2Z"/></svg>